<svg xmlns="http://www.w3.org/2000/svg" viewBox="0 0 120 120" role="img" aria-label="grandmaster rank">
  <defs>
    <linearGradient id="g" x1="15" y1="10" x2="105" y2="110" gradientUnits="userSpaceOnUse">
      <stop stop-color="#18E6F2"/>
      <stop offset="0.55" stop-color="#25344A"/>
      <stop offset="1" stop-color="#FF2941"/>
    </linearGradient>
    <filter id="s" x="-20%" y="-20%" width="140%" height="140%"><feDropShadow dx="0" dy="10" stdDeviation="8" flood-color="#000" flood-opacity=".55"/></filter>
  </defs>
  <path d="M60 8 101 29v40c0 24-18 38-41 47C37 107 19 93 19 69V29L60 8Z" fill="#08111d" stroke="url(#g)" stroke-width="4" filter="url(#s)"/>
  <path d="M60 23 86 37v28c0 16-11 26-26 33-15-7-26-17-26-33V37l26-14Z" fill="url(#g)" opacity=".24"/>
  <path d="M36 73 60 30l24 43-24 17-24-17Z" fill="url(#g)" opacity=".85"/>
  <text x="60" y="67" text-anchor="middle" font-family="Arial, sans-serif" font-size="22" font-weight="800" fill="#fff">g</text>
</svg>
