<?xml version="1.0" encoding="UTF-8"?>
<svg id="Capa_1" xmlns="http://www.w3.org/2000/svg" version="1.1" viewBox="0 0 900 180">
  <!-- Generator: Adobe Illustrator 30.4.0, SVG Export Plug-In . SVG Version: 2.1.4 Build 226)  -->
  <defs>
    <style>
      .st0 {
        fill: #fff;
      }

      .st1 {
        fill: none;
      }

      .st2 {
        fill: #0ae2fb;
      }

      .st3 {
        fill: #05e3fc;
      }

      .st4 {
        fill: #ed0214;
      }

      .st5 {
        fill: #06e4fb;
      }

      .st6 {
        fill: #05e3fb;
      }
    </style>
  </defs>
  <rect class="st1" width="900" height="180"/>
  <g>
    <path class="st4" d="M123.98,160.5l-98.63.16-.07-95.83,35.48,25.91.09,38.23,55.8.05,11.65-10.85v-55.59s-11.61-12.12-11.61-12.12l-89.21.06L6,18l118.38.02,11.04,4.33c3.83,1.51,6.77,3.7,9.31,7l15.53,20.13c2.07,3.96,2.17,9.81,2.17,14.46l.02,55.6c0,3.12-.98,6.64-1.56,9.69l-20.57,25.48c-5.03,1.96-10.72,5.27-16.34,5.78Z"/>
    <path class="st2" d="M675.35,153.66c-2.28.01-3.4-1.64-3.42-3.61l-.08-8.5c-.02-1.9,1.67-2.79,3.37-2.87l8.5-.38c2.3-.1,4.16,1.35,4.09,3.98l-.26,8.54c-.03.94-1.87,2.78-2.77,2.78l-9.43.06Z"/>
    <g>
      <path class="st3" d="M785.47,153.61l-29.94.11-7.75-7.63-.05-40.09,8.38-8.07,29.29.16,7.36,7.61v40.43s-7.29,7.49-7.29,7.49ZM777.8,141.91c.78-.46,1.89-1.86,2.07-2.65l-.14-26.75c-.15-1.37-1.65-2.51-2.93-2.52l-13.55-.02c-1.09,0-2.53,1.26-2.53,2.51l.03,26.76c0,1.42,1.86,2.65,3.09,2.66h13.97Z"/>
      <path class="st3" d="M838.15,153.65l-29.97.05-7.52-7.84-.03-40.08,7.52-7.8,29.97-.03,7.41,7.64.28,40-7.67,8.05ZM830.19,141.78c1.64-.03,2.76-1.72,2.75-3.14l-.06-25.57c0-1.1-1.29-3.07-2.44-3.07l-14.72-.05c-.88,0-2.39,1.59-2.39,2.52v26.77c0,1.46,1.78,2.81,3.06,2.79l13.8-.25Z"/>
      <path class="st5" d="M715.96,141.86l24.6-.04.22,11.84-32.89.05-7.73-8.12-.03-39.81,7.41-7.76,34.48-.06-4.6,12h-21.75c-.93,0-2.67,1.57-2.67,2.51l.13,26.72c0,1.32,1.31,2.66,2.85,2.66Z"/>
      <polygon class="st6" points="891 141.94 885.65 153.66 853.46 153.68 853.45 97.99 866.04 98.01 866.2 141.98 891 141.94"/>
    </g>
    <g>
      <path class="st0" d="M202.66,121.03l-9.4,27.06h-12.09l30.76-86.03h14.11l30.9,86.03h-12.49l-9.67-27.06h-32.11ZM232.35,112.35l-8.87-24.76c-2.01-5.62-3.36-10.72-4.7-15.7h-.27c-1.34,5.11-2.82,10.34-4.57,15.57l-8.87,24.89h27.27Z"/>
      <path class="st0" d="M270.23,63.21c5.91-1.15,14.37-1.79,22.43-1.79,12.49,0,20.55,2.17,26.2,7.02,4.57,3.83,7.12,9.7,7.12,16.34,0,11.36-7.52,18.89-17.06,21.95v.38c6.99,2.3,11.15,8.42,13.3,17.36,2.96,12,5.1,20.29,6.99,23.61h-12.09c-1.48-2.42-3.49-9.83-6.05-20.55-2.69-11.87-7.52-16.34-18.14-16.72h-11.02v37.27h-11.69V63.21ZM281.92,102.39h11.96c12.49,0,20.42-6.51,20.42-16.34,0-11.1-8.46-15.96-20.82-16.08-5.64,0-9.67.51-11.55,1.02v31.4Z"/>
      <path class="st0" d="M342.5,62.06h11.69v41.48h.4c2.42-3.32,4.84-6.38,7.12-9.19l27.67-32.29h14.51l-32.78,36.5,35.33,49.52h-13.84l-29.82-42.25-8.6,9.45v32.8h-11.69V62.06Z"/>
      <path class="st0" d="M413.7,134.56c5.24,3.06,12.9,5.62,20.96,5.62,11.96,0,18.94-6,18.94-14.68,0-8.04-4.84-12.64-17.06-17.1-14.78-4.98-23.91-12.25-23.91-24.38,0-13.4,11.69-23.36,29.29-23.36,9.27,0,15.99,2.04,20.02,4.21l-3.22,9.06c-2.96-1.53-9-4.08-17.19-4.08-12.36,0-17.06,7.02-17.06,12.89,0,8.04,5.51,12,18,16.59,15.31,5.62,23.11,12.64,23.11,25.27,0,13.27-10.34,24.76-31.7,24.76-8.73,0-18.27-2.42-23.11-5.49l2.96-9.32Z"/>
      <path class="st0" d="M493.22,62.06v86.03h-11.69V62.06h11.69Z"/>
      <path class="st0" d="M513.64,63.21c7.12-1.02,15.58-1.79,24.85-1.79,16.79,0,28.75,3.7,36.67,10.72,8.06,7.02,12.76,16.98,12.76,30.89s-4.57,25.53-13.03,33.44c-8.46,8.04-22.43,12.38-40.03,12.38-8.33,0-15.31-.38-21.23-1.02V63.21ZM525.33,139.28c2.96.51,7.25.64,11.82.64,24.99,0,38.56-13.27,38.56-36.5.13-20.29-11.96-33.19-36.67-33.19-6.04,0-10.61.51-13.7,1.15v67.9Z"/>
      <path class="st0" d="M649.99,107.75h-35.2v31.02h39.23v9.32h-50.91V62.06h48.9v9.32h-37.21v27.19h35.2v9.19Z"/>
    </g>
  </g>
</svg>