<?xml version="1.0" encoding="UTF-8"?>
<svg id="Capa_1" xmlns="http://www.w3.org/2000/svg" version="1.1" viewBox="0 0 512 512">
  <!-- Generator: Adobe Illustrator 30.4.0, SVG Export Plug-In . SVG Version: 2.1.4 Build 226)  -->
  <defs>
    <style>
      .st0 {
        fill: #05080c;
      }

      .st1 {
        fill: #ed0214;
      }
    </style>
  </defs>
  <rect class="st0" width="512" height="512" rx="96" ry="96"/>
  <path class="st0" d="M194,218h80c21,0,36,15,36,38s-15,38-36,38h-80v-76Z"/>
  <path class="st1" d="M356.51,443.1l-259.28.43-.17-251.93,93.26,68.12.24,100.51,146.7.13,30.62-28.52v-146.14s-30.52-31.86-30.52-31.86l-234.54.17-56.46-85.51,311.23.04,29.02,11.39c10.08,3.96,17.79,9.72,24.49,18.41l40.83,52.93c5.45,10.42,5.69,25.78,5.7,38.02l.04,146.18c0,8.21-2.57,17.46-4.11,25.48l-54.07,66.98c-13.23,5.14-28.18,13.86-42.96,15.18Z"/>
</svg>